<svg width="160" height="160" viewBox="0 0 160 160" fill="none" xmlns="http://www.w3.org/2000/svg">
<path d="M80 100C91.0457 100 100 91.0457 100 80C100 68.9543 91.0457 60 80 60C68.9543 60 60 68.9543 60 80C60 91.0457 68.9543 100 80 100Z" fill="url(#paint0_linear_19_1076)"/>
<path d="M80 26.6667C53.3333 26.6667 26.6667 40 0 80C26.6667 120 53.3333 133.333 80 133.333C106.667 133.333 133.333 120 160 80C133.333 40 106.667 26.6667 80 26.6667ZM80 113.333C61.6211 113.333 46.6667 98.3854 46.6667 80C46.6667 61.6146 61.6211 46.6667 80 46.6667C98.3789 46.6667 113.333 61.6146 113.333 80C113.333 98.3854 98.3789 113.333 80 113.333Z" fill="url(#paint1_linear_19_1076)"/>
<defs>
<linearGradient id="paint0_linear_19_1076" x1="80" y1="56.5625" x2="80" y2="100" gradientUnits="userSpaceOnUse">
<stop stop-color="#ECCD1A"/>
<stop offset="1" stop-color="#41D1B1"/>
</linearGradient>
<linearGradient id="paint1_linear_19_1076" x1="80" y1="17.5" x2="80" y2="133.333" gradientUnits="userSpaceOnUse">
<stop stop-color="#ECCD1A"/>
<stop offset="1" stop-color="#41D1B1"/>
</linearGradient>
</defs>
</svg>
